<?xml version="1.0" standalone="no"?><!DOCTYPE svg PUBLIC "-//W3C//DTD SVG 1.1//EN" "http://www.w3.org/Graphics/SVG/1.1/DTD/svg11.dtd"><svg t="1595320744419" class="icon" viewBox="0 0 1024 1024" version="1.1" xmlns="http://www.w3.org/2000/svg" p-id="20189" xmlns:xlink="http://www.w3.org/1999/xlink" width="40" height="40"><defs><style type="text/css"></style></defs><path d="M407.241948 819.184067C365.896375 734.023339 387.96328 685.109693 419.669519 639.143613a288.144391 288.144391 0 0 0 43.894819-100.137545A117.822934 117.822934 0 0 1 479.975105 629.344951c47.798351-53.454489 57.278357-138.05757 50.02894-170.719776 109.059904 75.601058 155.663295 238.991754 92.649137 360.71822 334.110471-187.449199 83.089466-468.025517 39.831959-499.811421 14.498833 31.865567 17.127742 85.240392-12.108916 111.529485-50.108604-187.767854-173.189357-226.245527-173.189357-226.245526C491.685701 301.448265 424.290026 407.002956 359.443597 485.949899c-2.389918-38.398008-4.859499-65.165085-25.173798-102.049479C329.649292 454.084332 275.637156 511.203361 261.138323 581.5466c-19.676988 94.800062 14.737825 164.266999 146.103625 237.637467z m104.758052 204.815933a512 512 0 1 1 512-512 512 512 0 0 1-512 512z" fill="#ff1f00" p-id="20190"></path></svg>