<?xml version="1.0" standalone="no"?><!DOCTYPE svg PUBLIC "-//W3C//DTD SVG 1.1//EN" "http://www.w3.org/Graphics/SVG/1.1/DTD/svg11.dtd"><svg t="1594110233976" class="icon" viewBox="0 0 1024 1024" version="1.1" xmlns="http://www.w3.org/2000/svg" p-id="5959" xmlns:xlink="http://www.w3.org/1999/xlink" width="40" height="40"><defs><style type="text/css"></style></defs><path d="M0 512a512 512 0 1 0 1024 0A512 512 0 1 0 0 512z" fill="#ADB838" p-id="5960"></path><path d="M540.672 323.584a90.112 90.112 0 1 0 180.224 0 90.112 90.112 0 1 0-180.224 0z m0 364.544a90.112 90.112 0 1 0 180.224 0 90.112 90.112 0 1 0-180.224 0zM229.376 512a90.112 90.112 0 1 0 180.224 0 90.112 90.112 0 1 0-180.224 0z" fill="#FFFFFF" p-id="5961"></path><path d="M341.037 480.37l257.344-175.718 27.713 40.592-257.34 175.718z" fill="#FFFFFF" p-id="5962"></path><path d="M349.053 488.452L601.907 670.56l-28.725 39.887L320.307 528.34z" fill="#FFFFFF" p-id="5963"></path></svg>