<?xml version="1.0" standalone="no"?><!DOCTYPE svg PUBLIC "-//W3C//DTD SVG 1.1//EN" "http://www.w3.org/Graphics/SVG/1.1/DTD/svg11.dtd"><svg t="1595320880389" class="icon" viewBox="0 0 1024 1024" version="1.1" xmlns="http://www.w3.org/2000/svg" p-id="33283" xmlns:xlink="http://www.w3.org/1999/xlink" width="40" height="40"><defs><style type="text/css"></style></defs><path d="M511.500488 512.499512m-511.500488 0a511.500488 511.500488 0 1 0 1023.000976 0 511.500488 511.500488 0 1 0-1023.000976 0Z" fill="#FFC74F" p-id="33284"></path><path d="M394.814439 636.078829l38.362537-31.169561 1.398634-1.198829 7.692488 2.997073 7.992195 3.096976 7.992195 3.096975 7.992195 3.096976 7.992195 3.096976 7.992195 3.096975 7.992195 3.096976 7.992195 3.096975 7.992196 3.096976 7.992195 3.096976 7.992195 3.096975 7.992195 3.096976 7.992195 3.096976 7.992195 3.096975 6.293854 2.397659 8.391805-6.893269 39.461463-32.36839 0.79922-0.599415-0.099903-0.099902-6.193951-5.095024-6.193951-5.095025-6.193951-5.095024-6.193952-5.095025-6.193951-5.095024-6.193951-5.095024-6.193951-5.095025-6.193952-5.095024-6.193951-5.095024-6.193951-5.095025-6.593561-4.995122-6.193951-5.095024-6.193951-5.095025-6.193952-5.095024-6.193951-5.095024-6.193951-5.095025-6.193951-5.095024-6.193952-5.095025-6.193951-5.095024-6.193951-5.095024-6.193951-5.095025-6.193951-5.095024-6.193952-5.095024-6.193951-5.095025-6.193951-5.095024-6.193951-5.095025-6.193952-5.095024-6.193951-5.095024-6.193951-5.095025-6.193951-5.095024-6.193951-5.095025-6.193952-5.095024-6.193951-5.095024-6.193951-5.095025-6.193951-5.095024-6.193951-5.095025-6.193952-5.095024-6.193951-5.095024-6.193951-5.095025-6.193951-5.095024-6.193952-5.095025-6.193951-5.095024-6.193951-5.095024-6.193951-5.095025-6.193951-5.095024-6.193952-5.095024-6.193951-5.095025-6.193951-5.095024-6.193951-5.095025-6.193952-5.095024-6.193951-5.095024-6.193951-5.095025-6.193951-5.095024-6.193951-5.095025-6.193952-5.095024-6.193951-5.095024-6.193951-5.095025-6.193951-5.095024-6.193952-5.095025-6.193951-5.095024-6.193951-5.095024-6.193951-5.095025-6.193951-5.095024-6.193952-5.095024-6.193951-5.095025-6.193951-5.095024-3.69639-2.997073v341.366634l2.397658 1.998048 6.293854 5.095025 6.193951 5.095024 6.293854 5.095025 6.293853 5.095024 6.293854 5.095024 6.193951 5.095025 6.293854 5.095024 6.293854 5.095025 6.293853 5.095024 6.293854 5.095024 6.293854 5.095025 6.293853 5.095024 6.293854 5.095025 6.293854 5.095024 6.293853 5.095024 6.193951 5.095025 6.293854 5.095024 6.293854 5.095025 4.096 3.29678 13.386927-10.889366 38.362536-31.169561 35.465366-30.470244z m2.497561-281.225366l6.193951 5.095025 6.193951 5.095024 6.193952 5.095025 6.193951 5.095024 6.193951 5.095024 6.193951 5.095025 6.193952 5.095024 6.193951 5.095025 6.193951 5.095024 6.193951 5.095024 6.193951 5.095025 6.193952 5.095024 6.193951 5.095024 6.193951 5.095025 6.193951 5.095024 6.193952 5.095025 6.193951 5.095024 5.694439 4.695415 3.096975-2.497561 38.362537-31.169561 38.362537-31.169561 38.362536-31.169561 1.698342-1.398634-0.299708-0.199805-6.193951-5.095025-6.193951-5.095024-6.293854-5.095024-6.193951-5.095025-6.193951-5.095024-6.193951-5.095025-6.193952-5.095024-6.193951-5.095024-6.193951-5.095025-6.193951-5.095024-6.193952-5.095025-6.193951-5.095024-6.193951-5.095024-6.193951-5.095025-6.193951-5.095024-6.193952-5.095024-6.193951-5.095025-6.193951-5.095024-6.193951-5.095025-1.19883-0.999024-29.870829 23.976585-37.063805 29.770927-37.063805 29.770927-16.583805 13.287024 2.797269 2.297756 6.193951 4.995122z m439.171122-83.718243l-38.062829 30.769951-38.06283 30.769951-38.062829 30.869854-37.962927 30.869853-38.062829 30.769951-38.062829 30.769952-38.062829 30.769951-5.194927 4.195902 0.899122 0.699317 6.193951 5.095025 6.293854 5.095024 6.193951 5.095025 6.193951 5.095024 6.193951 5.095024 6.193951 5.095025 6.193952 5.095024 6.193951 5.095025 6.193951 5.095024 6.193951 5.095024 6.193951 5.095025 6.193952 5.095024 6.193951 5.095025 6.193951 5.095024 6.193951 5.095024 6.193952 5.095025 6.293853 5.095024 6.193951 5.095024 6.193952 5.095025 6.193951 5.095024 6.293854 5.095025 6.193951 5.095024 1.498536 1.198829-9.390829 7.592586-38.062829 30.869853-38.062829 30.869854-38.06283 30.869854-20.48 16.583805-3.69639-1.398635-7.992195-3.096975-7.992195-3.096976-7.992195-3.096975-7.992195-3.096976-7.992196-3.096976-7.992195-3.096975-7.992195-3.096976-7.992195-3.096976-7.992195-3.096975-7.992195-3.096976-7.992195-3.096975-7.992195-3.096976-7.992196-3.096976-7.992195-3.096975-1.698341-0.699317-31.768976 26.174439-40.16078 33.267512-16.983415 13.986341 2.597464 2.097952 6.293853 5.095024 6.293854 5.095024 6.293854 5.095025 6.293853 5.095024 6.293854 5.095025 6.293854 5.095024 6.193951 5.095024 6.293853 5.095025 6.293854 5.095024 6.293854 5.095025 6.193951 5.095024 6.293854 5.095024 6.293853 5.095025 6.293854 5.095024 6.293854 5.095025 6.293853 5.095024 6.293854 5.095024 6.293854 5.095025 6.293853 5.095024 6.293854 5.095024 6.293854 5.095025 6.193951 5.095024 6.293853 5.095025 6.293854 5.095024 4.695415 3.796293 9.690536-7.792391L559.453659 839.180488l38.062829-30.869854 38.062829-30.869854 38.062829-30.869853 38.06283-30.869854 38.062829-30.869853 38.062829-30.869854 38.062829-30.869854 11.488781-9.290927V270.635707l-0.899122 0.499513z" fill="#FFFFFF" p-id="33285"></path></svg>