<?xml version="1.0" standalone="no"?><!DOCTYPE svg PUBLIC "-//W3C//DTD SVG 1.1//EN" "http://www.w3.org/Graphics/SVG/1.1/DTD/svg11.dtd"><svg t="1589770346225" class="icon" viewBox="0 0 1173 1024" version="1.1" xmlns="http://www.w3.org/2000/svg" p-id="65149" xmlns:xlink="http://www.w3.org/1999/xlink" width="45.8203125" height="40"><defs><style type="text/css"></style></defs><path d="M92.0576 512C92.0576 229.23264 321.29024 0 604.0576 0s512 229.23264 512 512-229.23264 512-512 512S92.0576 794.76736 92.0576 512" fill="#BBEEF5" p-id="65150"></path><path d="M46.03904 483.23584h1127.54688V0H46.03904z" fill="#D2F5F9" p-id="65151"></path><path d="M604.0576 480.3584H0.01024l23.00928 241.62304L604.0576 862.9248z" fill="#6CD4DF" p-id="65152"></path><path d="M604.0576 860.16L249.06752 675.84V409.6L604.0576 593.92z" fill="#8DE5ED" p-id="65153"></path><path d="M604.0576 860.16l354.99008-184.32V409.6L604.0576 593.92zM603.8528 225.71008L246.97856 409.96864 603.8528 594.2272l0.2048-0.1024V225.82272z" fill="#E8F9FB" p-id="65154"></path><path d="M604.0576 225.82272V594.1248l356.66944-184.15616z" fill="#8DE5ED" p-id="65155"></path><path d="M603.8528 474.60352L488.00768 534.4256 603.8528 594.2272l115.84512-59.8016z" fill="#0A93A0" p-id="65156"></path><path d="M880.11776 507.4432l-105.8816 54.65088-73.18528 37.77536a33.85344 33.85344 0 0 0-18.3296 30.08512v0.67584a9.23648 9.23648 0 0 0 13.48608 8.192l112.92672-58.71616 66.2016-34.41664a33.86368 33.86368 0 0 0 18.24768-30.04416 9.22624 9.22624 0 0 0-13.4656-8.192" fill="#44DDE7" p-id="65157"></path><path d="M355.7888 437.47328l179.13856-93.1328a33.85344 33.85344 0 0 0 18.2272-30.04416 9.22624 9.22624 0 0 0-13.45536-8.192l-179.06688 92.416a33.86368 33.86368 0 0 0-18.3296 30.08512v0.67584a9.22624 9.22624 0 0 0 13.48608 8.192" fill="#D2F5F9" p-id="65158"></path><path d="M1075.0976 218.44992c0 2.7648-3.30752 68.75136-47.79008 102.4-38.46144 31.16032-102.4 17.7152-102.4 20.48 0-2.7648 3.30752-68.74112 47.79008-102.4 38.46144-31.16032 102.4-17.7152 102.4-20.48" fill="#1CCADA" p-id="65159"></path><path d="M380.96896 275.68128a51.9168 51.9168 0 0 0-51.8656 51.8656 51.92704 51.92704 0 0 0 51.8656 51.8656 51.9168 51.9168 0 0 0 51.8656-51.8656 51.9168 51.9168 0 0 0-51.8656-51.8656m0 126.75072c-41.28768 0-74.87488-33.5872-74.87488-74.88512 0-41.27744 33.5872-74.87488 74.87488-74.87488s74.87488 33.5872 74.87488 74.87488-33.5872 74.88512-74.87488 74.88512M742.0928 427.25376l-5.03808-22.45632c43.85792-9.8304 102.66624-32.1024 146.35008-55.3984l10.83392 20.30592c-46.03904 24.54528-105.75872 47.13472-152.14592 57.5488" fill="#FFFFFF" p-id="65160"></path><path d="M596.16256 443.35104c-165.53984 0-322.48832-60.53888-444.672-170.97728 0 0 0.9728-7.74144 11.54048-20.61312 118.49728 108.8512 271.5648 168.58112 433.13152 168.58112 31.20128 0 62.53568-2.26304 93.17376-6.72768l3.30752 22.77376c-31.71328 4.61824-64.18432 6.9632-96.48128 6.9632" fill="#FFFFFF" p-id="65161"></path><path d="M701.05088 599.8592a33.85344 33.85344 0 0 0-18.3296 30.09536v0.67584a9.23648 9.23648 0 0 0 13.48608 8.192l112.92672-58.71616-34.89792-18.0224-73.18528 37.7856z" fill="#0A93A0" p-id="65162"></path></svg>