<?xml version="1.0" standalone="no"?><!DOCTYPE svg PUBLIC "-//W3C//DTD SVG 1.1//EN" "http://www.w3.org/Graphics/SVG/1.1/DTD/svg11.dtd"><svg t="1589772236002" class="icon" viewBox="0 0 1585 1024" version="1.1" xmlns="http://www.w3.org/2000/svg" p-id="11957" xmlns:xlink="http://www.w3.org/1999/xlink" width="61.9140625" height="40"><defs><style type="text/css"></style></defs><path d="M984.076642 174.514041l-34.462025-18.314008 33.438025-18.807045L1000.683984 92.707819l19.502353 44.411259 34.462025 18.309794-33.438025 18.81126-17.631341 44.680954zM1279.001284 58.759901l-24.752988-13.151868 24.019753-13.510058L1290.931095 0l14.011522 31.899918 24.752988 13.151868-24.019753 13.514272-12.663045 32.093761z" fill="#FFCD00" p-id="11958"></path><path d="M1137.946337 336.242831l-45.78502-24.327374 44.423901-24.993185L1160.015012 227.555556l25.911836 59.004312 45.78502 24.331589-44.428115 24.988971-23.42558 59.37093z" fill="#FFCD00" p-id="11959"></path><path d="M444.35279 908.616691C411.601646 850.581597 392.916807 783.553844 392.916807 712.164609c0-221.095506 179.233712-400.329218 400.329218-400.329218s400.329218 179.233712 400.329218 400.329218c0 24.710848-2.23763 48.89916-6.523259 72.371095-4.635391 1.158848-9.157004 2.380905-13.569054 3.657745A389.570897 389.570897 0 0 0 1180.933267 712.164609c0-214.112922-173.574321-387.687243-387.687242-387.687243s-387.687243 173.574321-387.687243 387.687243c0 68.865053 17.955819 133.537185 49.442765 189.591704a210.016922 210.016922 0 0 0-10.648757 6.860378z" fill="#B6D4F1" p-id="11960"></path><path d="M496.669498 881.251029C468.187128 831.40372 451.912691 773.684675 451.912691 712.164609c0-188.512922 152.820412-341.333333 341.333334-341.333333s341.333333 152.820412 341.333333 341.333333a341.404971 341.404971 0 0 1-13.657547 95.906239c-74.288461 35.595588-105.177021 86.660741-118.594371 106.36958-48.128-43.84237-95.476412-49.851523-165.163193-8.036082-102.964675-59.998815-220.505547-62.299654-291.667226-41.815441-17.846255 5.136856-34.120691 10.690897-48.827523 16.662124z" fill="#F3F9FF" p-id="11961"></path><path d="M0.004214 746.314798A611.28586 611.28586 0 0 1 75.700148 741.662551c175.862519 0 322.745416 73.593152 357.885893 171.694881C488.035029 874.807835 561.06772 851.226337 641.340049 851.226337c75.455737 0 144.51042 20.838189 197.749992 55.350782 23.556214-19.139951 50.791243-30.066831 79.813004-30.066831 30.631506 0 59.274008 12.174222 83.698305 33.328461C1062.789794 816.503045 1217.262091 750.090535 1398.328889 750.090535c66.795984 0 129.976362 9.039012 186.13623 25.132247v18.162304c-56.206222-16.881251-120.258897-26.438584-188.239012-26.438584-166.05656 0-308.700181 57.032165-370.700642 138.539193-7.576757 9.961877-13.952527 20.29037-19.013531 30.922272l-12.443918-11.946667 0.12642-0.235983c-21.950683-19.578206-47.719243-30.854848-75.287177-30.854848-19.776263 0-38.629663 5.802667-55.805893 16.312362-9.169646 5.608823-17.858897 12.557695-25.962403 20.678058l-9.898667-8.988445h-4.087572c1.120922-1.179918 2.254486-2.338765 3.400692-3.480757-50.079078-31.086617-114.688-49.809383-185.213367-49.809382-85.632527 0-162.533663 27.601646-215.301267 71.414518-0.417185-2.376691-2.608461-7.534617-6.569613-15.473778l0.058996-0.046354C390.868807 829.970963 247.837498 758.518519 75.700148 758.518519c-25.996115 0-51.32642 1.630815-75.700148 4.71967v-16.923391zM1223.650502 935.421893c11.824461-8.819885 38.93307-26.270025 61.107095-34.558946 15.924675-5.950156 31.853564-11.365136 50.108576-12.705186 19.864757-1.458041 47.049218-3.143638 68.224527 0 25.3893 3.771523 66.876049 19.249514 75.599012 23.53093s2.793877 14.163226-3.501827 11.866601c-6.29149-2.30084-54.20879-28.250601-120.739292-25.191243-66.530502 3.055144-111.337877 37.78265-122.294256 45.881943s-20.324082-0.004214-8.503835-8.824099zM45.009646 936.572313c4.340412-5.646749 26.87684-10.606617 60.087309-19.375934s89.9013-9.616329 116.154469 0c23.653136 8.663967 48.991868 19.734123 64.646848 31.72293 23.863835 18.271868 47.04079 36.113909 66.324016 59.299292 30.403951-11.866601 32.064263-16.725333 84.018568-29.982552 23.766914-5.680461 65.666634-5.233778 86.070782 3.139424 23.745844 9.742749 45.696527 20.897185 49.379555 26.843128 3.683029 5.950156-1.710881 9.350848-7.745316 7.024724-6.868807-2.650601-20.951967-11.078584-44.036214-20.176592-27.572148-10.863671-51.24214-7.707391-71.469301-3.729383-13.484774 2.650601-47.028148 13.539556-100.630123 32.666864-45.304626-51.069366-90.676675-82.788082-136.10772-95.156148s-99.311144-5.676247-161.631869 20.067029c-9.704823 0-11.39042-4.11707-5.061004-12.342782z" fill="#CFD0D9" p-id="11962"></path><path d="M890.167835 682.98693c0-13.210864 3.13521-50.888165 41.077992-50.888165 25.292379 0 39.923358 16.961317 43.897152 50.888165-0.404543 8.482765-2.675885 12.726255-6.80981 12.726255-4.133926 0-6.224066-4.24349-6.27042-12.726255-3.366979-25.3893-13.640691-38.081844-30.816922-38.081844-25.764346 0-29.051259 25.448296-29.051259 38.081844 0 8.419556-1.938436 12.663045-5.819523 12.726255-4.13814 0.324477-6.20721-3.919012-6.20721-12.726255zM709.657284 682.98693c0-13.210864-3.13521-50.888165-41.077992-50.888165-25.292379 0-39.923358 16.961317-43.897152 50.888165 0.404543 8.482765 2.675885 12.726255 6.809811 12.726255 4.133926 0 6.224066-4.24349 6.270419-12.726255 3.366979-25.3893 13.640691-38.081844 30.816922-38.081844 25.764346 0 29.051259 25.448296 29.051259 38.081844 0 8.419556 1.938436 12.663045 5.819523 12.726255 4.13814 0.324477 6.20721-3.919012 6.20721-12.726255z" fill="#B6D4F1" p-id="11963"></path></svg>